<?xml version="1.0" standalone="no"?><!DOCTYPE svg PUBLIC "-//W3C//DTD SVG 1.1//EN" "http://www.w3.org/Graphics/SVG/1.1/DTD/svg11.dtd"><svg t="1644612852479" class="icon" viewBox="0 0 1024 1024" version="1.1" xmlns="http://www.w3.org/2000/svg" p-id="8359" xmlns:xlink="http://www.w3.org/1999/xlink" width="200" height="200"><defs><style type="text/css"></style></defs><path d="M640 190.464q0 20.48 6.144 42.496t19.456 41.472 33.792 31.744 48.128 12.288l149.504 0 0 514.048q0 29.696-11.776 53.248t-30.72 39.936-42.496 25.6-47.104 9.216l-441.344 0q-19.456 0-42.496-11.264t-43.008-29.696-33.28-41.984-13.312-49.152l0-633.856q0-21.504 10.24-44.544t27.136-42.496 38.4-32.256 45.056-12.8l327.68 0 0 128zM512 766.976q0-12.288-5.632-24.064t-14.848-20.992-21.504-14.848-24.576-5.632l-124.928 0q-26.624 0-46.08 19.456t-19.456 45.056l0 65.536 257.024 0 0-64.512zM747.52 726.016q11.264 5.12 26.624-8.192t26.112-33.28 12.288-39.424-13.824-25.6q-12.288-6.144-33.28-16.384t-45.568-24.064-52.224-29.184-54.272-30.72q4.096-5.12 7.168-11.264t7.168-11.264q-1.024-3.072-1.024-7.168 0-8.192 5.12-14.848t13.312-8.704q14.336-35.84-10.24-56.32-12.288-10.24-25.6-20.992t-26.624-22.016q-20.48-17.408-36.352-15.872t-29.184 15.872q4.096 5.12 4.096 14.336t-6.656 16.384-16.896 7.168q-2.048 0-8.192-2.048-15.36 21.504-32.256 45.056t-32.256 45.056q9.216 6.144 9.216 18.432 0 10.24-6.656 16.896t-16.896 6.656q-8.192 0-13.312-4.096-1.024 2.048-1.536 2.56t-1.536 2.56q-11.264 16.384-8.192 28.16t13.312 17.92q16.384 11.264 37.888 27.648t38.912 28.672q14.336 8.192 35.328 5.12t31.232-12.288q-3.072-4.096-3.072-11.264 0-9.216 6.656-16.384t16.896-7.168q1.024 0 2.048 1.024 2.048-4.096 6.144-10.24 22.528 21.504 47.104 43.008t47.616 40.448 44.032 33.792 37.376 22.016zM815.104 132.096q27.648 24.576 44.032 41.984t25.088 29.184 10.752 19.456 2.048 14.848l0 15.36-150.528 0q-11.264 0-18.944-7.168t-12.8-17.408-7.68-20.992-2.56-17.92l0-126.976 2.048 0q9.216 0 17.408 2.56t19.968 9.728 28.672 20.992 42.496 36.352z" p-id="8360"></path></svg>