<?xml version="1.0" standalone="no"?><!DOCTYPE svg PUBLIC "-//W3C//DTD SVG 1.1//EN" "http://www.w3.org/Graphics/SVG/1.1/DTD/svg11.dtd"><svg t="1644602775485" class="icon" viewBox="0 0 1024 1024" version="1.1" xmlns="http://www.w3.org/2000/svg" p-id="8718" xmlns:xlink="http://www.w3.org/1999/xlink" width="200" height="200"><defs><style type="text/css"></style></defs><path d="M515.056716 249.631841q21.397015-24.453731 48.907463-42.79403 23.434826-16.302488 56.549254-28.529353t75.908458-10.189055q23.434826 2.037811 41.265672 9.170149t30.057711 15.283582q13.245771 10.189055 23.434826 22.41592l0-186.459701q0-14.264677 8.151244-21.397015t16.302488-7.132338q9.170149 0 16.302488 6.113433t7.132338 20.378109l0 231.291542q0 45.850746-18.849751 79.474627t-48.39801 53.492537-66.738308 25.98209-73.870647-3.056716q-38.718408-9.170149-61.643781-29.548259t-35.152239-40.756219q-14.264677-24.453731-19.359204-51.964179-3.056716 9.170149-6.113433 17.321393-2.037811 7.132338-5.60398 14.264677t-5.60398 12.226866q-2.037811 3.056716-10.189055 17.321393t-25.98209 29.548259-46.869652 26.491542-72.851741 8.151244q-48.907463-3.056716-78.455721-21.906468t-45.341294-42.79403-20.887562-47.379104-5.094527-35.661692l0-240.461692q0-14.264677 7.132338-21.397015t18.340299-6.113433q9.170149 0 15.793035 6.622886t6.622886 18.849751q-1.018905 6.113433-0.509453 36.171144t0.509453 63.681592l0 86.606965q11.20796-13.245771 27.510448-23.434826 14.264677-8.151244 35.152239-15.283582t50.435821-6.113433q33.623881 1.018905 63.172139 13.755224t51.964179 28.0199q26.491542 18.340299 46.869652 39.737313zM803.406965 586.889552q20.378109 0 22.41592 10.189055t-1.018905 18.340299q-5.094527 15.283582-35.152239 29.038806t-83.040796 38.208955q-27.510448 13.245771-51.964179 40.246766t-43.812935 57.058706-31.58607 57.568159-14.264677 39.737313q-6.113433 33.623881-21.397015 43.812935t-28.529353 10.189055q-6.113433 0-13.245771-1.528358t-13.755224-6.622886-12.226866-16.302488-8.660697-29.548259-17.830846-45.850746-34.133333-55.530348-41.775124-52.473632-40.756219-35.661692q-17.321393-10.189055-35.661692-17.830846t-35.152239-14.774129-29.548259-13.755224-17.830846-13.755224q-13.245771-17.321393-9.679602-29.038806t21.906468-11.717413l289.369154 0 287.331343 0z" p-id="8719"></path></svg>