<?xml version="1.0" standalone="no"?><!DOCTYPE svg PUBLIC "-//W3C//DTD SVG 1.1//EN" "http://www.w3.org/Graphics/SVG/1.1/DTD/svg11.dtd"><svg t="1644817280270" class="icon" viewBox="0 0 1024 1024" version="1.1" xmlns="http://www.w3.org/2000/svg" p-id="23562" xmlns:xlink="http://www.w3.org/1999/xlink" width="200" height="200"><defs><style type="text/css"></style></defs><path d="M423.331 498.07c19.73 9.281 40.282 13.921 61.657 13.921 20.234 0 36.549-4.071 48.945-12.215 12.395-8.142 18.593-18.948 18.593-32.415 0-13.557-6.293-24.066-18.877-31.528-12.586-7.46-30.828-11.192-54.732-11.192-11.51 0-27.005 0.638-46.48 1.911V319.139h144.562v23.612H466.965v59.78c11.003-0.454 19.286-0.683 24.853-0.683 30.985 0 55.141 5.643 72.47 16.924 17.326 11.283 25.991 26.843 25.991 46.678 0 20.473-9.296 37.034-27.888 49.68-18.592 12.648-44.269 18.972-77.024 18.972-27.446 0-48.125-2.913-62.037-8.735V498.07zM549.043 663.373h-10.986v-31.501c0-5.952-1.047-10.21-3.14-12.773-2.094-2.563-5.531-3.845-10.314-3.845-4.036 0-7.493 1.671-10.37 5.011-2.878 3.341-4.316 7.292-4.316 11.855v31.253H498.93v-32.492c0-10.418-4.541-15.627-13.622-15.627-4.186 0-7.652 1.588-10.398 4.763s-4.12 7.227-4.12 12.153v31.203h-10.987v-54.865h10.987v8.681h0.224c4.409-6.647 10.855-9.971 19.339-9.971 4.148 0 7.81 1.009 10.987 3.026 3.176 2.018 5.381 4.746 6.615 8.185 4.597-7.474 11.472-11.211 20.629-11.211 13.64 0 20.46 7.441 20.46 22.323v33.832z" p-id="23563"></path><path d="M880.924 452.676l58.357-18.539 12.618-24.277-54.884-135.937-27.146-10.558-39.767 21.642C763.031 168.688 637.405 90.386 493.489 90.386c-214.454 0-388.334 173.863-388.334 388.315 0 9.215 0.773 18.229 1.359 27.294a69.684 69.684 0 0 0-1.359 13.647v277.503c0 38.588 31.304 69.873 69.853 69.873h706.78v-363.01H880.5c0.553-8.403 1.287-16.772 1.287-25.308 0-8.744-0.295-17.422-0.863-26.024zM493.489 759.223c-154.936 0-280.519-125.602-280.519-280.521 0-154.936 125.583-280.536 280.519-280.536 154.9 0 280.519 125.6 280.519 280.536 0 154.919-125.619 280.521-280.519 280.521z" p-id="23564"></path><path d="M889.585 768.822v45.926h77.101v45.908h18.024v-91.834z" p-id="23565"></path></svg>