<?xml version="1.0" standalone="no"?><!DOCTYPE svg PUBLIC "-//W3C//DTD SVG 1.1//EN" "http://www.w3.org/Graphics/SVG/1.1/DTD/svg11.dtd"><svg t="1644708477519" class="icon" viewBox="0 0 1024 1024" version="1.1" xmlns="http://www.w3.org/2000/svg" p-id="8037" xmlns:xlink="http://www.w3.org/1999/xlink" width="200" height="200"><defs><style type="text/css"></style></defs><path d="M432.333966 120.470588q0 9.71537-7.286528 16.030361t-18.944972 6.314991-18.459203-6.800759-6.800759-17.487666l0-97.1537q0-7.772296 6.800759-14.573055t18.459203-6.800759 18.944972 6.314991 7.286528 16.030361l0 98.125237zM642.185958 120.470588q0 9.71537-7.286528 16.030361t-17.973435 6.314991q-8.743833 0-16.516129-6.314991t-7.772296-17.001898l0-94.239089q0-10.686907 6.800759-17.973435t17.487666-7.286528q11.658444 0 18.459203 7.286528t6.800759 15.058824l0 98.125237zM513.943074 243.855787q-21.373814-20.402277-44.690702-33.032258-19.43074-10.686907-42.747628-16.030361t-43.719165 7.286528q-28.174573 17.487666-37.404175 46.148008t7.286528 84.037951q10.686907 36.918406 19.43074 53.434535t6.800759 27.203036-4.371917 20.888046-12.144213 26.717268q-2.914611 4.857685-16.030361 25.745731t-31.574953 49.548387-40.318786 61.206831-41.776091 61.6926-36.918406 51.491461-25.745731 30.117647q-25.259962 22.345351-30.117647 39.347249t18.459203 33.518027q11.658444 8.743833 41.290323 19.43074t74.808349 20.888046 105.411765 17.001898 134.072106 6.800759q70.922201 0 129.214421-6.314991t102.497154-15.544592 72.865275-19.43074 41.290323-17.973435q20.402277-11.658444 27.203036-27.203036t-18.459203-37.889943q-8.743833-7.772296-25.745731-29.631879t-37.889943-50.519924-43.233397-61.6926-42.26186-62.178368-34.003795-51.491461-17.973435-31.089184q-5.829222-12.629981-11.172676-21.859583t-7.286528-17.973435-0.485769-18.459203 8.258065-23.316888 13.601518-34.003795 10.686907-41.290323 3.40038-40.804554-8.258065-33.518027q-16.516129-28.174573-35.946869-35.946869t-50.519924-0.971537q-15.544592 2.914611-29.14611 10.686907t-24.288425 15.544592q-11.658444 9.71537-22.345351 19.43074z" p-id="8038"></path></svg>