<?xml version="1.0" standalone="no"?><!DOCTYPE svg PUBLIC "-//W3C//DTD SVG 1.1//EN" "http://www.w3.org/Graphics/SVG/1.1/DTD/svg11.dtd"><svg t="1644708588677" class="icon" viewBox="0 0 1024 1024" version="1.1" xmlns="http://www.w3.org/2000/svg" p-id="1189" xmlns:xlink="http://www.w3.org/1999/xlink" width="200" height="200"><defs><style type="text/css"></style></defs><path d="M397.850947 136.515368c11.210105 54.918737 41.229474 90.004211 109.029053 90.004211 64.296421 0 94.585263-31.528421 107.142737-81.488842l1.94021-8.515369h64.296421a49.044211 49.044211 0 0 1 36.163369 15.898948l0.269474-0.808421 185.936842 194.775579 1.455158 1.616842a49.044211 49.044211 0 0 1-4.688843 69.254737l-122.341052 106.711579a48.990316 48.990316 0 0 1-15.090527 9.054315l27.378527 293.726316a49.044211 49.044211 0 0 1-43.11579 53.301895l-5.766737 0.323368H273.300211a49.044211 49.044211 0 0 1-49.044211-47.912421l0.215579-5.712842 27.324632-293.726316a48.990316 48.990316 0 0 1-15.090527-9.000421l-122.341052-106.711579a49.044211 49.044211 0 0 1-3.233685-70.925473l186.044632-194.775579 0.269474 0.700631a49.044211 49.044211 0 0 1 30.288842-15.467789l5.766737-0.323369h64.350315z m133.658948 325.416421h-49.25979a23.228632 23.228632 0 0 0-4.203789 46.133895l4.203789 0.377263h49.313684a23.228632 23.228632 0 1 0 0-46.511158z m47.966316-92.968421H434.337684a23.228632 23.228632 0 0 0-4.203789 46.133895l4.203789 0.377263h145.138527a23.228632 23.228632 0 1 0 0-46.511158z" p-id="1190"></path></svg>