<?xml version="1.0" standalone="no"?><!DOCTYPE svg PUBLIC "-//W3C//DTD SVG 1.1//EN" "http://www.w3.org/Graphics/SVG/1.1/DTD/svg11.dtd"><svg t="1644695351951" class="icon" viewBox="0 0 1024 1024" version="1.1" xmlns="http://www.w3.org/2000/svg" p-id="7370" xmlns:xlink="http://www.w3.org/1999/xlink" width="200" height="200"><defs><style type="text/css"></style></defs><path d="M512.984615 0q15.753846 0 21.661538 6.4t6.892308 12.307692q0.984615 10.830769-1.969231 15.753846t0 14.769231q1.969231 4.923077 6.4 11.323077t17.230769 10.338462q13.784615 3.938462 30.030769 11.815385t30.030769 26.584615q3.938462 5.907692 7.384615 13.784615t5.415385 15.753846q2.953846 8.861538 3.938462 16.738462l-254.030769 0q0.984615-6.892308 2.953846-13.784615 1.969231-5.907692 3.938462-12.8t6.892308-14.769231q7.876923-13.784615 24.615385-25.6t33.476923-16.738462 19.2-8.369231 7.384615-9.353846q3.938462-4.923077 2.953846-13.292308t-2.953846-16.246154q-2.953846-12.8 7.384615-18.707692t21.169231-5.907692zM688.246154 235.323077q0 42.338462-42.338462 42.338462l-265.846154 0q-42.338462 0-42.338462-42.338462 0-19.692308 12.307692-30.523077t30.030769-10.830769l265.846154 0q21.661538 0 32 12.307692t10.338462 29.046154zM561.230769 319.015385q29.538462 0 55.630769 3.938462t45.292308 15.753846 30.523077 33.476923 11.323077 56.123077l0 391.876923q0 26.584615-5.415385 42.830769t-16.738462 25.107692-28.061538 11.815385-39.384615 2.953846l-45.292308 0-46.276923 0q-23.630769 0-50.215385 0.492308t-59.076923 0.492308-50.707692-6.4-27.569231-18.707692-11.323077-29.538462-1.969231-39.876923l0-354.461538q0-33.476923 2.461538-50.707692t9.353846-33.969231q6.892308-17.723077 25.107692-27.569231t38.892308-15.261538 38.4-6.892308 24.615385-1.476923l52.184615 0 11.815385 0q5.907692 0 14.769231 0.492308t21.661538-0.492308zM457.846154 470.646154q0-13.784615-9.846154-23.630769t-23.630769-9.846154-23.630769 9.846154-9.846154 23.630769l0 281.6q0 13.784615 9.846154 23.630769t23.630769 9.846154 23.630769-9.846154 9.846154-23.630769l0-281.6z" p-id="7371"></path></svg>