<?xml version="1.0" standalone="no"?><!DOCTYPE svg PUBLIC "-//W3C//DTD SVG 1.1//EN" "http://www.w3.org/Graphics/SVG/1.1/DTD/svg11.dtd"><svg t="1644612594592" class="icon" viewBox="0 0 1024 1024" version="1.1" xmlns="http://www.w3.org/2000/svg" p-id="8218" xmlns:xlink="http://www.w3.org/1999/xlink" width="200" height="200"><defs><style type="text/css"></style></defs><path d="M347.136 841.728q0 18.432-7.168 34.304t-18.944 27.648-27.648 18.944-34.304 7.168-34.816-7.168-28.16-18.944-18.944-27.648-7.168-34.304q0-36.864 26.112-62.976t62.976-26.112q18.432 0 34.304 7.168t27.648 18.944 18.944 28.16 7.168 34.816zM259.072 813.056q-12.288 0-20.48 8.192t-8.192 20.48q0 11.264 8.192 19.456t20.48 8.192q11.264 0 19.456-8.192t8.192-19.456q0-12.288-8.192-20.48t-19.456-8.192zM80.896 363.52q-4.096-8.192-7.168-15.36-2.048-6.144-4.096-13.312t0-13.312q5.12-11.264 19.456-10.752t30.72 2.56q8.192 2.048 13.824-2.048t8.192-9.728 1.024-12.288-7.68-10.752q-34.816-23.552-26.624-46.08 5.12-13.312 19.456-13.312t27.648 5.12q7.168 2.048 12.288-1.024t7.68-8.704 2.56-12.288-4.096-9.728q-8.192-8.192-16.896-22.016t-0.512-24.064q8.192-12.288 24.064-8.704t27.136 10.752q5.12 2.048 10.752 1.024t9.728-4.608 5.632-9.728-1.536-13.312q-7.168-14.336-6.656-29.696t8.704-20.48q11.264-5.12 24.064 2.048t20.992 18.432q9.216 13.312 21.504 10.24t11.264-16.384q-3.072-38.912 11.264-45.056 8.192-4.096 22.016 4.608t27.136 45.568q1.024 5.12 6.144 18.944t11.776 33.792 14.336 44.032 15.872 48.64l41.984 125.952zM668.672 841.728q0 18.432-7.168 34.304t-18.944 27.648-27.648 18.944-34.304 7.168-34.304-7.168-28.16-18.944-18.944-27.648-6.656-34.304q0-36.864 25.6-62.976t62.464-26.112q18.432 0 34.304 7.168t27.648 18.944 18.944 28.16 7.168 34.816zM580.608 813.056q-12.288 0-20.48 8.192t-8.192 20.48q0 11.264 8.192 19.456t20.48 8.192q11.264 0 19.456-8.192t8.192-19.456q0-12.288-8.192-20.48t-19.456-8.192zM90.112 417.792q7.168 37.888 20.48 77.824 11.264 33.792 30.208 73.216t48.64 72.192q23.552 27.648 45.568 41.472t40.96 19.968 33.28 6.656 23.552 1.536q40.96 4.096 87.552 3.072t82.432-3.072q39.936-2.048 75.776-19.968t76.8-66.048q24.576-29.696 41.472-65.536t27.136-67.584q11.264-36.864 18.432-73.728l-52.224 0q35.84-62.464 67.584-116.736 13.312-22.528 27.136-46.08t26.624-44.032 23.552-36.352 16.896-25.088q8.192-10.24 19.968-17.92t24.576-10.752 25.6-1.536 23.04 9.728q17.408 13.312 31.232 16.384t24.064-8.192q6.144-7.168 5.632-14.848t-5.12-14.848-11.264-12.8-12.8-9.728q-4.096-3.072-13.824-7.168t-23.04-7.168-28.672-3.584-31.744 4.608q-32.768 10.24-50.688 29.696t-34.304 45.056q-4.096 6.144-13.312 21.504t-21.504 35.328-26.112 44.032-28.16 47.616q-33.792 56.32-73.728 123.904z" p-id="8219"></path></svg>