<?xml version="1.0" standalone="no"?><!DOCTYPE svg PUBLIC "-//W3C//DTD SVG 1.1//EN" "http://www.w3.org/Graphics/SVG/1.1/DTD/svg11.dtd"><svg t="1644750581615" class="icon" viewBox="0 0 1024 1024" version="1.1" xmlns="http://www.w3.org/2000/svg" p-id="4191" xmlns:xlink="http://www.w3.org/1999/xlink" width="200" height="200"><defs><style type="text/css"></style></defs><path d="M713.902829 476.734439c-41.159805-82.71922-71.130537-180.523707-194.709853-180.523707-59.941463 0-111.591024 24.675902-148.854635 74.926829-25.075512 33.667122-37.563317 88.213854-59.042341 121.481366-43.157854 66.435122-246.858927 61.240195-246.858927 121.081756 0 90.112 344.763317 116.985756 457.153561 113.988683 178.026146-4.595512 437.972293-30.769951 437.972293-113.988683 0-65.13639-196.508098-38.862049-245.660098-136.966244z m-11.388878 69.132488c0 12.387902-10.090146 22.278244-22.278244 22.278244-15.384976 0-30.670049-10.489756-46.055024-24.276293l22.877658 84.517463-11.388878-4.495609-8.192 9.590634-23.177365-85.716293-22.478049 85.716293-8.192-9.590634-11.388878 4.495609 22.977561-87.614439c-16.483902 15.285073-32.967805 27.373268-49.55161 27.373269-12.387902 0-22.278244-9.990244-22.278244-22.278244 0-11.388878 5.594537-16.983415 16.78361-22.478049-11.189073-5.594537-16.78361-11.189073-16.78361-22.478049 0-12.387902 9.990244-22.278244 22.278244-22.278244 19.880585 0 39.960976 17.782634 60.041366 37.66322 0.499512-0.099902 0.999024-0.099902 1.498536-0.199805 5.394732-1.598439 11.48878-4.49561 15.784586-2.697366 18.981463-18.681756 38.162732-34.766049 57.244097-34.766049 12.387902 0 22.278244 9.990244 22.278244 22.278244-0.099902 11.189073-5.694439 16.883512-16.78361 22.478049 11.189073 5.594537 16.78361 11.189073 16.78361 22.478049z" p-id="4192"></path><path d="M622.99161 513.398634c-1.798244 1.698341-3.496585 3.496585-5.29483 5.194927-3.596488-1.198829-7.292878-2.597463-10.489756-2.497561-0.39961 0.099902-0.899122 0.299707-1.298731 0.39961l-0.199805-0.199805c-2.697366 0.499512-4.795317 2.397659-5.894244 6.793366l-4.595512 17.682731c4.49561-4.195902 9.091122-8.691512 13.586731-13.287024l5.494635 20.280195 4.795317-18.282146c5.095024 4.995122 10.090146 9.890341 15.18517 14.485853l-6.493658-24.076487c-1.098927-3.69639-2.697366-5.594537-4.795317-6.493659z" p-id="4193"></path></svg>