<?xml version="1.0" standalone="no"?><!DOCTYPE svg PUBLIC "-//W3C//DTD SVG 1.1//EN" "http://www.w3.org/Graphics/SVG/1.1/DTD/svg11.dtd"><svg t="1644605634922" class="icon" viewBox="0 0 1024 1024" version="1.1" xmlns="http://www.w3.org/2000/svg" p-id="18244" xmlns:xlink="http://www.w3.org/1999/xlink" width="200" height="200"><defs><style type="text/css"></style></defs><path d="M212.865404 756.514457q0 9.188435-8.677966 17.866401t-20.929212 8.677966q-11.230309 0-19.908275-8.167498t-8.677966-19.397807l0-57.172483 58.19342 0 0 58.19342zM163.860419 152.119641q15.314058 0 33.690927-4.083749 15.314058-4.083749 35.222333-12.761715t41.347956-26.033898q28.586241-22.460618 56.151545-42.368893t57.172483-34.711864 62.277168-23.481555 72.48654-8.677966q65.33998 0 126.596211 28.075773t112.303091 69.934197q24.502493 21.439681 45.942173 32.159521t37.774676 15.824526q18.376869 5.104686 34.711864 6.125623l0-106.177468q0-7.14656 2.041874-13.272183 2.041874-5.104686 5.104686-9.188435t11.230309-4.083749q7.14656 0 10.209372 4.083749t5.104686 9.188435 2.041874 12.251246l1.020937 265.443669-788.163509 0 0-266.464606q0-7.14656 2.041874-12.251246t5.615155-8.677966 10.71984-3.57328q6.125623 0 9.698903 3.57328t5.615155 8.677966 2.041874 11.230309l0 109.240279zM913.228315 357.328016l74.528415 155.182453 0 109.240279q-4.083749 15.314058-9.188435 26.544367-5.104686 10.209372-13.272183 18.376869t-22.460618 8.167498-20.418744-8.677966-11.740778-18.887338-12.761715-18.887338-22.460618-8.677966q-13.272183 0-19.908275 8.677966t-12.251246 18.887338-13.782652 18.376869-24.502493 8.167498q-18.376869-1.020937-26.544367-9.188435t-13.782652-18.376869-11.740778-18.376869-20.418744-8.167498-20.929212 8.677966-12.761715 18.376869-13.782652 18.376869-23.992024 8.677966q-13.272183 0-20.418744-8.677966t-13.782652-18.376869-13.782652-18.376869-20.418744-8.677966q-12.251246 0-19.397807 8.677966t-13.272183 18.887338-14.293121 18.887338-23.481555 8.677966-23.992024-8.677966-14.803589-18.887338-12.761715-18.887338-18.887338-8.677966q-13.272183 0-19.908275 8.167498t-11.740778 18.376869-13.272183 18.887338-24.502493 8.677966q-17.355932 0-25.012961-8.677966t-13.272183-18.376869-12.251246-18.376869-21.95015-8.677966-21.95015 8.677966-12.251246 18.376869-13.272183 18.376869-23.992024 8.677966-25.012961-8.167498-14.293121-18.376869-11.740778-17.866401-17.355932-7.657029-18.376869 8.167498-13.782652 17.866401-15.314058 17.866401-21.95015 8.167498q-14.293121 0-22.460618-7.657029t-13.272183-16.845464q-5.104686-11.230309-8.167498-25.52343l0-111.282154 68.402792-155.182453 788.163509 0zM881.579262 754.472582q0 12.251246-8.677966 20.418744t-19.908275 8.167498-19.397807-8.167498-8.167498-19.397807l0-57.172483 56.151545 0 0 56.151545z" p-id="18245"></path></svg>