<?xml version="1.0" standalone="no"?><!DOCTYPE svg PUBLIC "-//W3C//DTD SVG 1.1//EN" "http://www.w3.org/Graphics/SVG/1.1/DTD/svg11.dtd"><svg t="1644721203255" class="icon" viewBox="0 0 1024 1024" version="1.1" xmlns="http://www.w3.org/2000/svg" p-id="13843" xmlns:xlink="http://www.w3.org/1999/xlink" width="200" height="200"><defs><style type="text/css"></style></defs><path d="M145.920912 311.662748V171.457072a25.53616 25.53616 0 0 1 25.53616-25.53616h140.205676a25.53616 25.53616 0 0 0 25.536159-25.53616V25.53616a25.53616 25.53616 0 0 0-25.536159-25.53616H25.53616A25.53616 25.53616 0 0 0 0 25.53616v286.126588a25.53616 25.53616 0 0 0 25.53616 25.536159h94.848592a25.53616 25.53616 0 0 0 25.53616-25.536159zM712.337252 145.920912h140.327277a25.53616 25.53616 0 0 1 25.414559 25.53616v140.205676a25.53616 25.53616 0 0 0 25.53616 25.536159h94.970193a25.53616 25.53616 0 0 0 25.414559-25.536159V25.53616A25.53616 25.53616 0 0 0 998.585441 0H712.337252a25.53616 25.53616 0 0 0-25.536159 25.53616v94.848592a25.53616 25.53616 0 0 0 25.536159 25.53616zM311.662748 878.079088H171.457072a25.53616 25.53616 0 0 1-25.53616-25.414559V712.337252a25.53616 25.53616 0 0 0-25.53616-25.536159H25.53616a25.53616 25.53616 0 0 0-25.53616 25.536159v286.248189a25.53616 25.53616 0 0 0 25.53616 25.414559h286.126588a25.53616 25.53616 0 0 0 25.536159-25.414559v-94.970193a25.53616 25.53616 0 0 0-25.536159-25.53616zM878.079088 712.337252v140.327277a25.53616 25.53616 0 0 1-25.414559 25.414559H712.337252a25.53616 25.53616 0 0 0-25.536159 25.53616v94.970193a25.53616 25.53616 0 0 0 25.536159 25.414559h286.248189a25.53616 25.53616 0 0 0 25.414559-25.414559V712.337252a25.53616 25.53616 0 0 0-25.414559-25.536159h-94.970193a25.53616 25.53616 0 0 0-25.53616 25.536159z" p-id="13844"></path><path d="M0 447.855599m25.53616 0l972.92768 0q25.53616 0 25.53616 25.53616l0 94.848593q0 25.53616-25.53616 25.536159l-972.92768 0q-25.53616 0-25.53616-25.536159l0-94.848593q0-25.53616 25.53616-25.53616Z" p-id="13845"></path></svg>