<?xml version="1.0" standalone="no"?><!DOCTYPE svg PUBLIC "-//W3C//DTD SVG 1.1//EN" "http://www.w3.org/Graphics/SVG/1.1/DTD/svg11.dtd"><svg t="1644719953239" class="icon" viewBox="0 0 1126 1024" version="1.1" xmlns="http://www.w3.org/2000/svg" p-id="4477" xmlns:xlink="http://www.w3.org/1999/xlink" width="219.921875" height="200"><defs><style type="text/css"></style></defs><path d="M742.4 0h-358.4C199.68 0 51.2 148.48 51.2 332.8v358.4C51.2 875.52 199.68 1024 384 1024h358.4C926.72 1024 1075.2 875.52 1075.2 691.2v-358.4C1075.2 148.48 926.72 0 742.4 0zM220.16 203.093333c0-8.533333 3.413333-17.066667 10.24-23.893333 6.826667-6.826667 15.36-10.24 23.893333-10.24H392.533333c18.773333 0 34.133333 8.533333 34.133334 27.306667s-15.36 23.893333-34.133334 23.893333h-105.813333c-6.826667 0-13.653333 6.826667-13.653333 13.653333v105.813334c0 17.066667-5.12 32.426667-20.48 34.133333h3.413333-6.826667 3.413334c-17.066667-1.706667-30.72-17.066667-30.72-34.133333v-136.533334z m170.666667 651.946667h-138.24c-8.533333 0-17.066667-3.413333-23.893334-10.24-6.826667-6.826667-10.24-15.36-10.24-23.893333v-136.533334c0-18.773333 8.533333-34.133333 27.306667-34.133333s23.893333 15.36 23.893333 34.133333v105.813334c0 3.413333 1.706667 6.826667 3.413334 10.24 3.413333 3.413333 6.826667 3.413333 10.24 3.413333H392.533333c18.773333 0 34.133333 5.12 34.133334 23.893333 0 18.773333-15.36 27.306667-35.84 27.306667z m515.413333-34.133333c0 8.533333-3.413333 17.066667-10.24 23.893333-6.826667 6.826667-15.36 10.24-23.893333 10.24H733.866667c-18.773333 0-34.133333-8.533333-34.133334-27.306667s15.36-23.893333 34.133334-23.893333h105.813333c3.413333 0 6.826667-1.706667 10.24-3.413333 3.413333-3.413333 3.413333-6.826667 3.413333-10.24v-105.813334c0-18.773333 5.12-34.133333 23.893334-34.133333 18.773333 0 27.306667 15.36 27.306666 34.133333v136.533334z m-25.6-286.72H245.76c-13.653333 0-25.6-11.946667-25.6-25.6s11.946667-25.6 25.6-25.6h633.173333c13.653333 0 25.6 11.946667 25.6 25.6 1.706667 15.36-10.24 25.6-23.893333 25.6z m25.6-194.56c0 18.773333-8.533333 34.133333-27.306667 34.133333s-23.893333-15.36-23.893333-34.133333v-105.813334c0-3.413333-1.706667-6.826667-3.413333-10.24-3.413333-3.413333-6.826667-3.413333-10.24-3.413333H733.866667c-18.773333 0-34.133333-5.12-34.133334-23.893333 0-18.773333 15.36-27.306667 34.133334-27.306667h138.24c8.533333 0 17.066667 3.413333 23.893333 10.24 6.826667 6.826667 10.24 15.36 10.24 23.893333v136.533334z" p-id="4478"></path></svg>