<?xml version="1.0" standalone="no"?><!DOCTYPE svg PUBLIC "-//W3C//DTD SVG 1.1//EN" "http://www.w3.org/Graphics/SVG/1.1/DTD/svg11.dtd"><svg t="1644720065945" class="icon" viewBox="0 0 1024 1024" version="1.1" xmlns="http://www.w3.org/2000/svg" p-id="6647" xmlns:xlink="http://www.w3.org/1999/xlink" width="200" height="200"><defs><style type="text/css"></style></defs><path d="M862.475 92c38.38 0 69.464 31.147 69.464 69.53v319.63H92V161.53C92 123.147 123.145 92 161.525 92h700.95zM92 862.531h0.061v-319.69H932v319.69C932 900.853 900.855 932 862.475 932h-700.95C123.145 932 92 900.853 92 862.531z m165.106-644.347h92.761V156.87h-92.76c-55.302 0-100.18 44.943-100.18 100.126v92.768h61.309v-92.768a38.813 38.813 0 0 1 38.87-38.812z m610.029 131.518v-92.706c0-55.244-45.001-100.126-100.241-100.126h-92.639v61.314h92.639a38.869 38.869 0 0 1 38.931 38.812v92.706h61.31z m-192.88 456.053v61.314h92.639c55.3 0 100.24-45.005 100.24-100.187v-92.707h-61.309v92.707c0 21.46-17.473 38.873-38.931 38.873h-92.639z m-517.328-131.58v92.707c0.067 55.303 44.88 100.119 100.18 100.187h92.76v-61.314h-92.76c-21.46 0-38.871-17.413-38.871-38.873v-92.707h-61.31z" p-id="6648"></path></svg>