<?xml version="1.0" standalone="no"?><!DOCTYPE svg PUBLIC "-//W3C//DTD SVG 1.1//EN" "http://www.w3.org/Graphics/SVG/1.1/DTD/svg11.dtd"><svg t="1644708038082" class="icon" viewBox="0 0 1024 1024" version="1.1" xmlns="http://www.w3.org/2000/svg" p-id="7471" xmlns:xlink="http://www.w3.org/1999/xlink" width="200" height="200"><defs><style type="text/css"></style></defs><path d="M363.69132 1.348644q6.785364-3.877351 17.932749 3.392682t20.840762 32.472816q2.908013 7.754702 13.570729 33.442153t25.202782 53.798247q7.754702 14.540067 19.386756 29.080133t24.718113 26.656789 26.656789 19.871424 25.202782 7.754702q9.693378 0 21.8101-7.270033t24.718113-17.932749 23.264107-22.779438 18.417418-22.779438q6.785364-9.693378 14.540067-26.17212t15.024736-33.442153 12.116722-30.53414 6.785364-16.478742q2.908013-6.785364 9.693378-17.932749t17.44808-10.178047q7.754702 0 10.662716 3.392682t0.969338 14.055398q-0.969338 7.754702-7.270033 24.718113t-12.116722 40.227518q-3.877351 12.601391-6.785364 30.049471l-7.754702 32.957484q-2.908013 17.44808-5.331358 31.503478t-3.392682 19.871424q-1.938676 11.632053-5.816027 23.748776t0.969338 24.718113q5.816027 15.509404 19.386756 22.294769 5.816027 3.877351 13.570729 5.816027-2.908013 10.662716-6.785364 21.325431-2.908013 9.693378-6.300696 21.325431t-6.300696 24.233444-5.331358 24.233444-4.36202 22.294769q-2.908013 11.632053-3.877351 22.294769-4.846689-4.846689-12.601391-4.36202t-17.44808 2.423344q-9.693378 0.969338-26.656789 5.331358t-44.104869 12.116722q-13.570729 3.877351-21.8101 4.846689t-14.055398 0-11.632053-2.423344-12.601391-3.392682-16.963411-4.36202-20.840762-5.331358-20.356093-5.331358-16.478742-3.392682q-13.570729-0.969338-17.44808 0.969338-2.908013 1.938676-3.877351 3.877351l-3.877351-21.325431q-1.938676-9.693378-3.877351-19.871424t-3.877351-20.840762q-2.908013-10.662716-6.300696-23.264107t-6.300696-24.233444q-3.877351-13.570729-7.754702-28.110796 3.877351 0 7.754702-1.938676 6.785364-2.908013 17.44808-14.540067 10.662716-10.662716 8.72404-23.264107t-3.877351-23.264107q-0.969338-5.816027-4.36202-24.233444t-7.754702-40.227518-8.72404-41.196856-6.300696-27.141458q-2.908013-15.509404-8.239371-31.503478t-7.270033-20.840762-4.846689-13.08606 4.846689-12.116722zM537.202782 467.600115q13.570729 0.969338 35.865498-4.36202t43.6202-11.147384q25.202782-6.785364 52.34424-16.478742 6.785364 24.233444 16.478742 50.405564 7.754702 22.294769 18.417418 52.34424t23.264107 61.06828q7.754702 20.356093 21.325431 53.313578t27.141458 65.4303 25.687451 58.160267 16.963411 30.53414 15.509404 11.147384 10.662716 13.08606q0 11.632053-15.024736 18.417418t-52.828909 14.540067q-19.386756 2.908013-51.374902 6.785364t-66.884307 7.270033-67.853645 5.816027-53.313578 2.423344q-23.264107 0-59.129604-2.908013t-73.185002-7.270033-68.822982-8.239371-46.043544-6.785364q-21.325431-3.877351-40.227518-9.693378t-20.840762-17.44808q-0.969338-3.877351 1.938676-8.239371t7.754702-8.239371 9.693378-6.785364 8.72404-5.816027 13.570729-24.233444 21.325431-49.436227 23.748776-57.190929 19.871424-47.497551q11.632053-26.17212 23.264107-59.614273t22.294769-62.522287q11.632053-33.926822 23.264107-68.822982 4.846689 1.938676 11.632053 3.877351 4.846689 1.938676 12.601391 4.36202t15.509404 4.36202q8.72404 2.908013 21.325431 6.300696t26.17212 6.300696 25.687451 4.846689 19.871424 1.938676z" p-id="7472"></path></svg>